<?xml version="1.0" encoding="iso-8859-1"?>
<!-- Uploaded to: SVG Repo, www.svgrepo.com, Generator: SVG Repo Mixer Tools -->
<svg height="800px" width="800px" version="1.1" id="Layer_1" xmlns="http://www.w3.org/2000/svg" xmlns:xlink="http://www.w3.org/1999/xlink" 
	 viewBox="0 0 511.989 511.989" xml:space="preserve">
<path style="fill:#ED5564;" d="M255.994,151.231C98.514,83.186,0,250.136,0,250.136c58.342,56.107,111.341,103.592,177.542,121.372
	c22.077,5.921,121.23,7.452,140.668,2.906c68.982-16.125,132.543-65.39,193.777-124.278
	C511.988,250.136,413.474,83.186,255.994,151.231z"/>
<g style="opacity:0.2;">
	<path style="fill:#FFFFFF;" d="M255.994,172.575c130.105-56.232,219.963,47.951,247.275,85.873c2.906-2.75,5.812-5.516,8.719-8.312
		c0,0-98.514-166.949-255.994-98.904C98.514,83.186,0,250.136,0,250.136c2.906,2.797,5.812,5.578,8.703,8.344
		C35.984,220.573,125.856,116.327,255.994,172.575z"/>
</g>
<path style="fill:#DA4453;" d="M511.988,250.136c-48.984-3.531-113.232-12.828-160.918-6.625
	c-34.453,4.484-67.016,8.719-94.373,8.719c-26.562,0-56.124-4.031-87.436-8.312C122.668,237.543,59.342,247.106,0,250.137l0,0
	c58.342,56.107,111.341,103.592,177.542,121.372c22.077,5.921,121.23,7.452,140.668,2.906
	C387.193,358.289,450.754,309.024,511.988,250.136L511.988,250.136z"/>
<path style="opacity:0.1;enable-background:new    ;" d="M169.262,265.245c31.312,4.281,60.874,8.312,87.436,8.312
	c27.357,0,59.92-4.234,94.373-8.719c41.154-5.359,94.637,0.828,140.012,4.906c7-6.391,13.969-12.938,20.906-19.609
	c-48.984-3.531-113.232-12.828-160.918-6.625c-34.453,4.484-67.016,8.719-94.373,8.719c-26.562,0-56.124-4.031-87.436-8.312
	c-46.593-6.375-109.919,3.188-169.261,6.219c7.093,6.812,14.093,13.5,21.062,20.031C73.998,266.417,128.153,259.636,169.262,265.245
	z"/>
</svg>